<?xml version="1.0" encoding="UTF-8" standalone="no"?>
<!-- Created with Inkscape (http://www.inkscape.org/) -->

<svg
   width="64"
   height="64"
   viewBox="0 0 16.933332 16.933334"
   version="1.1"
   id="svg1"
   inkscape:version="1.3.1 (91b66b0783, 2023-11-16)"
   sodipodi:docname="plume_screen.svg"
   inkscape:export-filename="plume_screen.png"
   inkscape:export-xdpi="1500"
   inkscape:export-ydpi="1500"
   xmlns:inkscape="http://www.inkscape.org/namespaces/inkscape"
   xmlns:sodipodi="http://sodipodi.sourceforge.net/DTD/sodipodi-0.dtd"
   xmlns="http://www.w3.org/2000/svg"
   xmlns:svg="http://www.w3.org/2000/svg">
  <sodipodi:namedview
     id="namedview1"
     pagecolor="#ffffff"
     bordercolor="#000000"
     borderopacity="0.25"
     inkscape:showpageshadow="2"
     inkscape:pageopacity="0.0"
     inkscape:pagecheckerboard="0"
     inkscape:deskcolor="#d1d1d1"
     inkscape:document-units="px"
     inkscape:zoom="7.3636881"
     inkscape:cx="15.345571"
     inkscape:cy="37.413317"
     inkscape:window-width="1920"
     inkscape:window-height="1121"
     inkscape:window-x="-9"
     inkscape:window-y="-9"
     inkscape:window-maximized="1"
     inkscape:current-layer="g13" />
  <defs
     id="defs1" />
  <g
     inkscape:label="Calque 1"
     inkscape:groupmode="layer"
     id="layer1">
    <g
       id="g13"
       style="display:inline"
       transform="translate(-96.533331,-139.28407)">
      <path
         style="fill:#ffeeaa;stroke:#333333;stroke-width:0.529167;stroke-linecap:round;stroke-linejoin:round"
         d="m 109.62404,152.62032 c 0.42206,-1.58096 -0.89376,-5.06792 -3.36229,-7.9612 -2.8997,-3.39865 -6.22617,-4.73346 -6.913264,-3.55795 -0.68709,1.17551 2.318484,4.06543 3.758184,6.17237 3.49018,5.1077 5.93963,7.51093 6.51737,5.34678 z"
         id="path2"
         sodipodi:nodetypes="zszsz" />
      <path
         style="fill:#ffeeaa;stroke:#333333;stroke-width:0.529167;stroke-linecap:round;stroke-linejoin:round"
         d="m 110.04232,154.611 c -0.0852,-0.43024 -1.53575,-5.0368 -4.00428,-7.93007 -2.89971,-3.39865 -5.50594,-5.05799 -4.90917,-4.36299 0.59678,0.695 3.16447,2.91708 4.68118,4.9693 2.06608,2.79557 3.33678,6.77194 3.45488,7.21667 0.11809,0.44473 0.86261,0.53732 0.77739,0.10709 z"
         id="path1"
         sodipodi:nodetypes="zscszz" />
      <g
         id="g10"
         transform="rotate(-6.8318499,109.10341,97.185848)"
         inkscape:transform-center-x="1.5718489"
         inkscape:transform-center-y="-0.15802136"
         style="stroke:#ffffff;stroke-width:1.05833331;stroke-dasharray:none">
        <g
           id="g11"
           style="stroke-width:1.05833331;stroke-dasharray:none">
          <path
             id="path9"
             style="fill:#ffffff;stroke:#ffffff;stroke-width:1.05833331;stroke-linecap:round;stroke-linejoin:round;stroke-dasharray:none"
             d="m 100.36075,148.81895 c 0,0.55426 -0.449312,1.00358 -1.003572,1.00358 -0.554261,0 -1.003576,-0.44932 -1.003574,-1.00358 10e-7,-0.37641 0.207235,-0.70443 0.513834,-0.87617"
             sodipodi:nodetypes="cssc" />
          <path
             style="fill:#ffffff;stroke:#ffffff;stroke-width:1.05833331;stroke-linecap:round;stroke-linejoin:round;stroke-dasharray:none;stroke-opacity:1"
             d="m 97.916668,147.35952 2.960612,1.71117"
             id="path10"
             sodipodi:nodetypes="cc" />
        </g>
      </g>
      <g
         id="g12"
         transform="matrix(-0.90437833,0.42673157,0.42673157,0.90437833,135.57341,-28.394282)"
         inkscape:transform-center-x="-1.0479067"
         inkscape:transform-center-y="-1.2472661"
         style="stroke:#ffffff;stroke-width:1.05833331;stroke-dasharray:none">
        <path
           id="path11"
           style="fill:#ffffff;stroke:#ffffff;stroke-width:1.05833331;stroke-linecap:round;stroke-linejoin:round;stroke-dasharray:none"
           d="m 100.36075,148.81895 c 0,0.55426 -0.449312,1.00358 -1.003572,1.00358 -0.554261,0 -1.003576,-0.44932 -1.003574,-1.00358 10e-7,-0.37641 0.207235,-0.70443 0.513834,-0.87617"
           sodipodi:nodetypes="cssc" />
        <path
           style="fill:#ffffff;stroke:#ffffff;stroke-width:1.05833331;stroke-linecap:round;stroke-linejoin:round;stroke-dasharray:none;stroke-opacity:1"
           d="m 97.916668,147.35952 2.801022,1.61899"
           id="path12"
           sodipodi:nodetypes="cc" />
      </g>
      <g
         id="g6"
         transform="rotate(-6.8318499,109.10341,97.185848)"
         inkscape:transform-center-x="1.5718489"
         inkscape:transform-center-y="-0.15802136">
        <path
           id="circle4"
           style="fill:#ffffff;stroke:#000000;stroke-width:0.529167;stroke-linecap:round;stroke-linejoin:round"
           d="m 100.36075,148.81895 c 0,0.55426 -0.449312,1.00358 -1.003572,1.00358 -0.554261,0 -1.003576,-0.44932 -1.003574,-1.00358 10e-7,-0.37641 0.207235,-0.70443 0.513834,-0.87617"
           sodipodi:nodetypes="cssc" />
        <path
           style="fill:#ffffff;stroke:#000000;stroke-width:0.529167;stroke-linecap:round;stroke-linejoin:round;stroke-dasharray:none;stroke-opacity:1"
           d="m 97.916668,147.35952 2.960612,1.71117"
           id="path5"
           sodipodi:nodetypes="cc" />
        <circle
           style="fill:#000000;stroke:none;stroke-width:0.529167;stroke-linecap:round;stroke-linejoin:round;stroke-dasharray:none;stroke-opacity:1"
           id="path6"
           cx="99.448212"
           cy="148.95395"
           r="0.22905895" />
      </g>
      <g
         id="g8"
         transform="matrix(-0.90437833,0.42673157,0.42673157,0.90437833,135.57341,-28.394282)"
         inkscape:transform-center-x="-1.0479067"
         inkscape:transform-center-y="-1.2472661">
        <path
           id="path7"
           style="fill:#ffffff;stroke:#000000;stroke-width:0.529167;stroke-linecap:round;stroke-linejoin:round"
           d="m 100.36075,148.81895 c 0,0.55426 -0.449312,1.00358 -1.003572,1.00358 -0.554261,0 -1.003576,-0.44932 -1.003574,-1.00358 10e-7,-0.37641 0.207235,-0.70443 0.513834,-0.87617"
           sodipodi:nodetypes="cssc" />
        <path
           style="fill:#ffffff;stroke:#000000;stroke-width:0.529167;stroke-linecap:round;stroke-linejoin:round;stroke-dasharray:none;stroke-opacity:1"
           d="m 97.916668,147.35952 2.801022,1.61899"
           id="path8"
           sodipodi:nodetypes="cc" />
        <circle
           style="fill:#000000;stroke:none;stroke-width:0.529167;stroke-linecap:round;stroke-linejoin:round;stroke-dasharray:none;stroke-opacity:1"
           id="circle8"
           cx="99.448212"
           cy="148.95395"
           r="0.22905895" />
      </g>
    </g>
  </g>
</svg>
