<?xml version="1.0" encoding="UTF-8" standalone="no"?>
<!-- Created with Inkscape (http://www.inkscape.org/) -->

<svg
   width="64"
   height="64"
   viewBox="0 0 16.933332 16.933334"
   version="1.1"
   id="svg1"
   inkscape:version="1.3.1 (91b66b0783, 2023-11-16)"
   sodipodi:docname="plume.svg"
   inkscape:export-filename="plume.png"
   inkscape:export-xdpi="192"
   inkscape:export-ydpi="192"
   xmlns:inkscape="http://www.inkscape.org/namespaces/inkscape"
   xmlns:sodipodi="http://sodipodi.sourceforge.net/DTD/sodipodi-0.dtd"
   xmlns="http://www.w3.org/2000/svg"
   xmlns:svg="http://www.w3.org/2000/svg">
  <sodipodi:namedview
     id="namedview1"
     pagecolor="#ffffff"
     bordercolor="#000000"
     borderopacity="0.25"
     inkscape:showpageshadow="2"
     inkscape:pageopacity="0.0"
     inkscape:pagecheckerboard="0"
     inkscape:deskcolor="#d1d1d1"
     inkscape:document-units="px"
     inkscape:zoom="7.3636881"
     inkscape:cx="31.234348"
     inkscape:cy="34.01828"
     inkscape:window-width="1920"
     inkscape:window-height="1121"
     inkscape:window-x="-9"
     inkscape:window-y="-9"
     inkscape:window-maximized="1"
     inkscape:current-layer="g13" />
  <defs
     id="defs1" />
  <g
     inkscape:label="Calque 1"
     inkscape:groupmode="layer"
     id="layer1">
    <g
       id="g13"
       style="display:inline"
       transform="translate(-96.533331,-139.28407)">
      <path
         style="fill:#ffeeaa;stroke:#4d4d4d;stroke-width:0.529167;stroke-linecap:round;stroke-linejoin:round"
         d="m 99.884464,152.04549 c 1.580966,0.42206 5.067926,-0.89376 7.961206,-3.36229 3.39865,-2.8997 4.73346,-6.22617 3.55795,-6.91326 -1.17551,-0.68709 -4.06543,2.31848 -6.17237,3.75818 -5.1077,3.49018 -7.510936,5.93963 -5.346786,6.51737 z"
         id="path2"
         sodipodi:nodetypes="zszsz" />
      <path
         style="fill:#ffeeaa;stroke:#4d4d4d;stroke-width:0.529167;stroke-linecap:round;stroke-linejoin:round"
         d="m 97.893791,152.46377 c 0.430233,-0.0852 5.036799,-1.53575 7.930069,-4.00428 3.39865,-2.89971 5.05799,-5.50594 4.36299,-4.90917 -0.695,0.59678 -2.91708,3.16447 -4.9693,4.68118 -2.79557,2.06608 -6.771938,3.33678 -7.216668,3.45488 -0.44473,0.11809 -0.537328,0.86261 -0.107089,0.77739 z"
         id="path1"
         sodipodi:nodetypes="zscszz" />
    </g>
  </g>
</svg>
