<?xml version="1.0" encoding="UTF-8" standalone="no"?>
<!-- Created with Inkscape (http://www.inkscape.org/) -->

<svg
   width="64"
   height="64"
   viewBox="0 0 16.933332 16.933334"
   version="1.1"
   id="svg1"
   inkscape:version="1.3.1 (91b66b0783, 2023-11-16)"
   sodipodi:docname="plume.svg"
   inkscape:export-filename="plume.png"
   inkscape:export-xdpi="192"
   inkscape:export-ydpi="192"
   xmlns:inkscape="http://www.inkscape.org/namespaces/inkscape"
   xmlns:sodipodi="http://sodipodi.sourceforge.net/DTD/sodipodi-0.dtd"
   xmlns="http://www.w3.org/2000/svg"
   xmlns:svg="http://www.w3.org/2000/svg">
  <sodipodi:namedview
     id="namedview1"
     pagecolor="#ffffff"
     bordercolor="#000000"
     borderopacity="0.25"
     inkscape:showpageshadow="2"
     inkscape:pageopacity="0.0"
     inkscape:pagecheckerboard="0"
     inkscape:deskcolor="#d1d1d1"
     inkscape:document-units="px"
     inkscape:zoom="7.3636881"
     inkscape:cx="31.234348"
     inkscape:cy="33.882478"
     inkscape:window-width="1920"
     inkscape:window-height="1121"
     inkscape:window-x="-9"
     inkscape:window-y="-9"
     inkscape:window-maximized="1"
     inkscape:current-layer="g13" />
  <defs
     id="defs1" />
  <g
     inkscape:label="Calque 1"
     inkscape:groupmode="layer"
     id="layer1">
    <g
       id="g13"
       style="display:inline"
       transform="translate(-96.533331,-139.28407)">
      <path
         style="fill:#ffeeaa;stroke:#4d4d4d;stroke-width:0.529167;stroke-linecap:round;stroke-linejoin:round"
         d="m 111.33683,149.91959 c -0.25151,-1.61689 -2.86205,-4.27685 -6.28789,-5.92859 -4.02425,-1.94026 -7.606501,-1.81988 -7.761062,-0.4671 -0.15456,1.35279 3.761342,2.78484 5.928592,4.13205 5.25392,3.26593 8.46464,4.47696 8.12036,2.26364 z"
         id="path2"
         sodipodi:nodetypes="zszsz" />
      <path
         style="fill:#ffeeaa;stroke:#4d4d4d;stroke-width:0.529167;stroke-linecap:round;stroke-linejoin:round"
         d="m 112.52254,151.57241 c -0.25151,-0.35931 -3.43694,-3.9894 -6.86278,-5.64114 -4.02425,-1.94026 -7.078372,-2.40736 -6.251964,-2.01212 0.826414,0.39524 4.072264,1.39281 6.287894,2.65888 3.01819,1.72467 5.78486,4.85065 6.07231,5.20996 0.28745,0.35931 1.00606,0.14373 0.75454,-0.21558 z"
         id="path1"
         sodipodi:nodetypes="zscszz" />
    </g>
  </g>
</svg>
